<?xml version="1.0" encoding="utf-8"?>
<!-- Generator: Adobe Illustrator 16.0.3, SVG Export Plug-In . SVG Version: 6.00 Build 0)  -->
<!DOCTYPE svg PUBLIC "-//W3C//DTD SVG 1.1//EN" "http://www.w3.org/Graphics/SVG/1.1/DTD/svg11.dtd">
<svg version="1.1" id="Orthodox" xmlns="http://www.w3.org/2000/svg" xmlns:xlink="http://www.w3.org/1999/xlink" x="0px" y="0px"
	 width="1190.551px" height="944px" viewBox="0 0 1190.551 944" enable-background="new 0 0 1190.551 944" xml:space="preserve">
<path opacity="0.1" fill="#1D1D1B" d="M645.33,101.625h-52.647c-7.224,0-13.316,5.295-14.319,12.429l-52.66,368.532
	c-0.321,2.224-0.116,4.486,0.591,6.619l26.324,78.971c0.732,2.211,2.352,3.779,3.946,5.347c-11.542,13.47-17.84,32.082-17.84,55.886
	c0,56.118,67.042,125.629,69.922,128.56l10.359,10.643l10.36-10.643c2.879-2.931,69.922-72.442,69.922-128.56
	c0-23.804-6.298-42.416-17.84-55.886c1.594-1.568,3.213-3.136,3.933-5.347l26.323-78.971c0.721-2.133,0.926-4.396,0.617-6.619
	l-52.647-368.532C658.646,106.921,652.527,101.625,645.33,101.625z M619.006,726.351c-20.231-23.522-51.336-66.195-51.336-96.94
	c0-35.989,15.373-51.336,51.336-51.336c35.989,0,51.337,15.347,51.337,51.336C670.343,660.155,639.237,702.828,619.006,726.351z
	 M661.217,549.128h-84.421l-21.941-65.835l50.398-352.722h27.506l50.411,352.722L661.217,549.128z M433.211,187.936
	c-133.624,133.637-133.624,351.116,0,484.816c6.426,6.427,6.426,16.838,0,23.265c-3.213,3.213-7.43,4.807-11.632,4.807
	c-4.216,0-8.419-1.62-11.632-4.833c-146.464-146.503-146.452-384.869,0-531.32c6.427-6.427,16.838-6.427,23.265,0
	C439.637,171.098,439.637,181.509,433.211,187.936z M828.079,696.068c-3.214,3.213-7.43,4.833-11.646,4.833
	s-8.406-1.594-11.619-4.807c-6.427-6.427-6.452-16.838-0.025-23.265c133.623-133.727,133.623-351.231,0-484.855
	c-6.401-6.427-6.401-16.838,0-23.265c6.427-6.427,16.863-6.427,23.29,0C974.505,311.161,974.505,549.54,828.079,696.068z"/>
<linearGradient id="SVGID_1_" gradientUnits="userSpaceOnUse" x1="688.6309" y1="722.9131" x2="509.7505" y2="99.0834">
	<stop  offset="0" style="stop-color:#0E90FF"/>
	<stop  offset="0.071" style="stop-color:#2488FE"/>
	<stop  offset="0.3314" style="stop-color:#716BFA"/>
	<stop  offset="0.5637" style="stop-color:#AE54F7"/>
	<stop  offset="0.7595" style="stop-color:#DA44F5"/>
	<stop  offset="0.911" style="stop-color:#F53AF3"/>
	<stop  offset="1" style="stop-color:#FF36F3"/>
</linearGradient>
<path fill="url(#SVGID_1_)" d="M625.33,81.625h-52.647c-7.224,0-13.316,5.295-14.319,12.429l-52.66,368.532
	c-0.321,2.224-0.116,4.486,0.591,6.619l26.324,78.971c0.732,2.211,2.352,3.779,3.946,5.347c-11.542,13.47-17.84,32.082-17.84,55.886
	c0,56.118,67.043,125.629,69.922,128.56l10.359,10.643l10.36-10.643c2.879-2.931,69.922-72.442,69.922-128.56
	c0-23.804-6.298-42.416-17.84-55.886c1.594-1.568,3.213-3.136,3.933-5.347l26.323-78.971c0.721-2.133,0.926-4.396,0.617-6.619
	L639.674,94.055C638.646,86.921,632.527,81.625,625.33,81.625z M599.006,706.351c-20.231-23.522-51.336-66.195-51.336-96.94
	c0-35.989,15.373-51.336,51.336-51.336c35.989,0,51.337,15.347,51.337,51.336C650.343,640.155,619.237,682.829,599.006,706.351z
	 M641.217,529.128h-84.421l-21.941-65.835l50.398-352.722h27.506l50.411,352.722L641.217,529.128z M413.211,167.936
	c-133.624,133.637-133.624,351.116,0,484.816c6.426,6.427,6.426,16.838,0,23.265c-3.213,3.213-7.43,4.807-11.632,4.807
	c-4.216,0-8.419-1.62-11.632-4.833c-146.464-146.503-146.452-384.869,0-531.32c6.427-6.427,16.838-6.427,23.265,0
	C419.637,151.098,419.637,161.509,413.211,167.936z M808.079,676.068c-3.214,3.213-7.43,4.833-11.646,4.833
	s-8.406-1.594-11.619-4.807c-6.427-6.427-6.452-16.838-0.025-23.265c133.623-133.727,133.623-351.231,0-484.855
	c-6.401-6.427-6.401-16.838,0-23.265c6.427-6.427,16.863-6.427,23.29,0C954.505,291.161,954.505,529.54,808.079,676.068z"/>
<g>
	<path fill="#9B9B9B" d="M48.316,928.128c-6.977,0-12.497-1.381-16.56-4.141c-4.065-2.76-6.095-6.479-6.095-11.155
		c0-2.454,0.728-4.829,2.185-7.13c1.456-2.3,3.45-4.37,5.98-6.21v-0.46c-1.38-0.843-2.53-1.992-3.45-3.45
		c-0.92-1.455-1.38-3.257-1.38-5.404c0-2.453,0.69-4.543,2.07-6.268c1.38-1.726,2.683-3.008,3.91-3.853v-0.46
		c-1.765-1.533-3.354-3.603-4.772-6.21c-1.419-2.605-2.127-5.596-2.127-8.97c0-2.836,0.498-5.443,1.495-7.82
		c0.995-2.376,2.375-4.428,4.14-6.152c1.763-1.726,3.833-3.065,6.21-4.025c2.375-0.958,4.905-1.438,7.59-1.438
		c1.533,0,2.913,0.135,4.14,0.402c1.225,0.27,2.26,0.595,3.105,0.978h18.745v4.255h-12.88c1.763,1.535,3.22,3.508,4.37,5.923
		s1.725,5.08,1.725,7.992c0,2.838-0.5,5.444-1.495,7.82c-0.997,2.377-2.357,4.428-4.083,6.152c-1.725,1.726-3.757,3.067-6.095,4.025
		c-2.339,0.959-4.85,1.438-7.532,1.438c-1.535,0-3.125-0.19-4.772-0.575c-1.649-0.383-3.125-0.958-4.428-1.725
		c-1.227,0.997-2.282,2.109-3.163,3.335c-0.882,1.227-1.322,2.76-1.322,4.6c0,1.994,0.728,3.7,2.185,5.117
		c1.456,1.42,4.255,2.128,8.395,2.128h11.845c6.21,0,10.791,1.017,13.743,3.047c2.951,2.031,4.428,5.233,4.428,9.603
		c0,2.376-0.615,4.695-1.84,6.958c-1.227,2.261-2.972,4.255-5.232,5.979c-2.262,1.726-5.002,3.105-8.223,4.141
		C55.907,927.61,52.302,928.128,48.316,928.128z M48.892,923.987c3.065,0,5.865-0.402,8.395-1.207c2.53-0.806,4.675-1.86,6.44-3.163
		c1.763-1.305,3.123-2.779,4.083-4.427c0.958-1.65,1.438-3.355,1.438-5.118c0-3.067-1.092-5.232-3.277-6.497
		c-2.185-1.266-5.348-1.897-9.488-1.897H44.637c-0.615,0-1.553-0.058-2.817-0.173c-1.265-0.115-2.627-0.363-4.083-0.747
		c-2.53,1.763-4.37,3.641-5.52,5.635c-1.15,1.992-1.725,3.985-1.725,5.979c0,3.45,1.59,6.248,4.772,8.396
		C38.445,922.913,42.987,923.987,48.892,923.987z M47.512,879.942c1.916,0,3.737-0.363,5.462-1.093
		c1.725-0.728,3.238-1.782,4.542-3.162c1.303-1.38,2.338-3.027,3.105-4.945c0.766-1.915,1.15-4.024,1.15-6.324
		c0-2.301-0.384-4.408-1.15-6.325c-0.767-1.916-1.782-3.525-3.047-4.83c-1.265-1.303-2.78-2.318-4.542-3.048
		c-1.765-0.728-3.604-1.093-5.52-1.093c-1.995,0-3.853,0.365-5.578,1.093c-1.725,0.729-3.24,1.745-4.542,3.048
		c-1.305,1.305-2.339,2.895-3.105,4.772c-0.767,1.879-1.15,4.007-1.15,6.383c0,2.3,0.383,4.409,1.15,6.324
		c0.766,1.918,1.82,3.565,3.163,4.945c1.34,1.38,2.875,2.435,4.6,3.162C43.774,879.579,45.594,879.942,47.512,879.942z"/>
	<path fill="#9B9B9B" d="M88.912,833.022c-1.305,0-2.397-0.421-3.278-1.265c-0.882-0.843-1.322-1.916-1.322-3.221
		c0-1.455,0.44-2.587,1.322-3.393c0.881-0.805,1.973-1.207,3.278-1.207c1.303,0,2.395,0.402,3.277,1.207
		c0.88,0.806,1.323,1.938,1.323,3.393c0,1.305-0.442,2.378-1.323,3.221C91.307,832.602,90.214,833.022,88.912,833.022z
		 M86.267,901.563v-55.2h5.06v55.2H86.267z"/>
	<path fill="#9B9B9B" d="M127.666,902.942c-2.685,0-4.907-0.402-6.67-1.207c-1.765-0.806-3.182-1.936-4.255-3.393
		c-1.075-1.456-1.822-3.221-2.243-5.29c-0.422-2.07-0.632-4.331-0.632-6.785v-35.535h-8.625v-3.91l8.74-0.46l0.69-15.984h4.37
		v15.984h15.985v4.37h-15.985v35.995c0,1.765,0.133,3.354,0.402,4.772c0.268,1.42,0.748,2.645,1.438,3.68s1.628,1.84,2.818,2.415
		c1.188,0.575,2.74,0.862,4.657,0.862c1.073,0,2.243-0.172,3.507-0.517c1.265-0.346,2.396-0.748,3.393-1.208l1.38,4.14
		c-1.61,0.615-3.22,1.111-4.83,1.495C130.195,902.75,128.815,902.942,127.666,902.942z"/>
	<path fill="#9B9B9B" d="M152.619,902.942c-1.304,0-2.455-0.46-3.45-1.38c-0.998-0.92-1.495-2.185-1.495-3.795
		c0-1.686,0.498-2.99,1.495-3.91c0.995-0.92,2.146-1.38,3.45-1.38c1.303,0,2.433,0.46,3.393,1.38c0.958,0.92,1.438,2.225,1.438,3.91
		c0,1.61-0.48,2.875-1.438,3.795C155.052,902.482,153.921,902.942,152.619,902.942z"/>
	<path fill="#9B9B9B" d="M178.378,833.022c-1.305,0-2.397-0.421-3.278-1.265c-0.882-0.843-1.322-1.916-1.322-3.221
		c0-1.455,0.44-2.587,1.322-3.393c0.881-0.805,1.973-1.207,3.278-1.207c1.303,0,2.395,0.402,3.277,1.207
		c0.88,0.806,1.323,1.938,1.323,3.393c0,1.305-0.442,2.378-1.323,3.221C180.773,832.602,179.681,833.022,178.378,833.022z
		 M175.733,901.563v-55.2h5.06v55.2H175.733z"/>
	<path fill="#9B9B9B" d="M222.192,902.942c-3.297,0-6.44-0.652-9.43-1.955c-2.99-1.303-5.617-3.181-7.877-5.635
		c-2.262-2.453-4.064-5.463-5.405-9.027c-1.342-3.565-2.013-7.647-2.013-12.248c0-4.6,0.67-8.72,2.013-12.362
		c1.34-3.641,3.143-6.688,5.405-9.143c2.261-2.452,4.888-4.33,7.877-5.635c2.99-1.303,6.133-1.955,9.43-1.955
		c3.295,0,6.458,0.652,9.487,1.955c3.028,1.305,5.673,3.183,7.935,5.635c2.261,2.455,4.063,5.502,5.405,9.143
		c1.34,3.643,2.012,7.763,2.012,12.362c0,4.601-0.672,8.683-2.012,12.248c-1.342,3.564-3.145,6.574-5.405,9.027
		c-2.262,2.454-4.907,4.332-7.935,5.635C228.65,902.29,225.487,902.942,222.192,902.942z M222.192,898.457
		c2.76,0,5.348-0.593,7.762-1.782c2.415-1.188,4.485-2.855,6.21-5.002c1.725-2.146,3.085-4.716,4.082-7.705
		c0.996-2.99,1.495-6.286,1.495-9.891c0-3.68-0.5-7.015-1.495-10.005c-0.997-2.99-2.357-5.577-4.082-7.763
		c-1.725-2.185-3.795-3.87-6.21-5.06c-2.415-1.188-5.002-1.782-7.762-1.782c-2.76,0-5.33,0.595-7.705,1.782
		c-2.377,1.189-4.428,2.875-6.152,5.06c-1.725,2.186-3.087,4.772-4.083,7.763c-0.998,2.99-1.495,6.325-1.495,10.005
		c0,3.604,0.498,6.9,1.495,9.891c0.995,2.989,2.357,5.56,4.083,7.705c1.725,2.146,3.775,3.814,6.152,5.002
		C216.862,897.864,219.432,898.457,222.192,898.457z"/>
	<path fill="#9B9B9B" d="M254.045,919.963l35.075-100.051h4.37l-35.075,100.051H254.045z"/>
	<path fill="#9B9B9B" d="M304.185,901.563v-42.09h-7.59v-14.72l7.59-0.575v-0.806c0-3.065,0.383-5.997,1.15-8.797
		c0.766-2.798,2.05-5.271,3.853-7.418c1.8-2.146,4.14-3.853,7.015-5.117s6.458-1.897,10.752-1.897c2.683,0,5.06,0.229,7.13,0.689
		c2.07,0.461,3.755,0.921,5.06,1.381l-3.45,14.489c-0.92-0.383-1.879-0.67-2.875-0.862c-0.997-0.19-1.955-0.287-2.875-0.287
		c-1.84,0-3.297,0.518-4.37,1.553c-1.074,1.034-1.61,2.895-1.61,5.577v1.38h9.66v15.41h-9.66v42.09H304.185z"/>
	<path fill="#9B9B9B" d="M359.613,902.942c-3.145,0-5.847-0.557-8.107-1.667c-2.262-1.111-4.122-2.684-5.578-4.716
		c-1.457-2.03-2.53-4.484-3.22-7.359s-1.035-6.113-1.035-9.718v-35.42h19.78v32.89c0,3.681,0.46,6.135,1.38,7.36
		c0.92,1.228,2.375,1.84,4.37,1.84c1.84,0,3.353-0.383,4.542-1.149c1.188-0.766,2.433-2.07,3.737-3.91v-37.03h19.78v57.5h-16.1
		l-1.38-7.59h-0.46c-2.3,2.76-4.85,4.945-7.647,6.555C366.876,902.138,363.523,902.942,359.613,902.942z"/>
	<path fill="#9B9B9B" d="M408.602,901.563v-57.5h16.1l1.38,6.9h0.46c2.3-2.223,4.925-4.158,7.877-5.808
		c2.951-1.648,6.383-2.473,10.292-2.473c6.286,0,10.848,2.127,13.685,6.383c2.835,4.255,4.255,9.947,4.255,17.077v35.42h-19.78
		v-32.89c0-3.681-0.46-6.133-1.38-7.36c-0.92-1.226-2.377-1.84-4.37-1.84c-1.84,0-3.375,0.385-4.6,1.149
		c-1.227,0.768-2.607,1.841-4.14,3.221v37.72H408.602z"/>
	<path fill="#9B9B9B" d="M501.52,902.942c-4.064,0-7.86-0.672-11.385-2.013c-3.527-1.34-6.594-3.295-9.2-5.864
		c-2.607-2.568-4.658-5.73-6.153-9.488c-1.495-3.755-2.242-8.01-2.242-12.765c0-4.753,0.843-9.008,2.53-12.765
		c1.686-3.756,3.948-6.918,6.785-9.488c2.835-2.567,6.113-4.522,9.833-5.864c3.718-1.341,7.608-2.013,11.672-2.013
		c3.45,0,6.555,0.537,9.315,1.61c2.76,1.074,5.25,2.529,7.475,4.369l-9.2,12.65c-1.304-1.072-2.435-1.801-3.393-2.185
		c-0.959-0.383-1.975-0.575-3.047-0.575c-3.68,0-6.555,1.284-8.625,3.853c-2.07,2.569-3.105,6.037-3.105,10.407
		s1.053,7.84,3.163,10.407c2.108,2.569,4.733,3.853,7.877,3.853c1.61,0,3.2-0.345,4.772-1.035c1.57-0.689,3.047-1.57,4.428-2.645
		l7.59,12.88c-2.915,2.53-6.077,4.274-9.487,5.232C507.71,902.463,504.51,902.942,501.52,902.942z"/>
	<path fill="#9B9B9B" d="M552.349,902.942c-3.757,0-6.958-0.557-9.603-1.667c-2.645-1.111-4.83-2.703-6.555-4.772
		c-1.725-2.07-2.99-4.543-3.795-7.418c-0.805-2.875-1.208-6.075-1.208-9.603v-20.01h-7.59v-14.72l8.74-0.69l2.3-14.95h16.33v14.95
		h13.11v15.41h-13.11v19.665c0,3.22,0.69,5.425,2.07,6.612c1.38,1.189,2.99,1.782,4.83,1.782c0.92,0,1.82-0.095,2.703-0.287
		c0.88-0.19,1.667-0.402,2.357-0.633l2.99,14.26c-1.535,0.46-3.375,0.921-5.52,1.381
		C558.251,902.713,555.569,902.942,552.349,902.942z"/>
	<path fill="#9B9B9B" d="M584.548,836.933c-3.22,0-5.865-0.92-7.935-2.76c-2.07-1.841-3.105-4.216-3.105-7.13
		c0-2.913,1.035-5.29,3.105-7.131c2.07-1.84,4.715-2.76,7.935-2.76c3.22,0,5.865,0.92,7.935,2.76
		c2.07,1.841,3.104,4.218,3.104,7.131c0,2.914-1.034,5.289-3.104,7.13C590.413,836.013,587.768,836.933,584.548,836.933z
		 M574.658,901.563v-57.5h19.78v57.5H574.658z"/>
	<path fill="#9B9B9B" d="M633.308,902.942c-3.681,0-7.245-0.672-10.695-2.013c-3.45-1.34-6.497-3.295-9.143-5.864
		c-2.645-2.568-4.754-5.73-6.325-9.488c-1.572-3.755-2.357-8.01-2.357-12.765c0-4.753,0.785-9.008,2.357-12.765
		c1.571-3.756,3.681-6.918,6.325-9.488c2.646-2.567,5.692-4.522,9.143-5.864c3.45-1.341,7.015-2.013,10.695-2.013
		c3.68,0,7.225,0.672,10.638,2.013c3.41,1.342,6.439,3.297,9.085,5.864c2.645,2.57,4.772,5.732,6.382,9.488
		c1.61,3.757,2.415,8.012,2.415,12.765c0,4.755-0.805,9.01-2.415,12.765c-1.609,3.758-3.737,6.92-6.382,9.488
		c-2.646,2.569-5.675,4.524-9.085,5.864C640.532,902.271,636.987,902.942,633.308,902.942z M633.308,887.072
		c2.99,0,5.117-1.283,6.382-3.853c1.266-2.567,1.898-6.037,1.898-10.407s-0.633-7.838-1.898-10.407
		c-1.265-2.568-3.392-3.853-6.382-3.853s-5.118,1.284-6.383,3.853c-1.265,2.569-1.897,6.037-1.897,10.407s0.633,7.84,1.897,10.407
		C628.189,885.789,630.317,887.072,633.308,887.072z"/>
	<path fill="#9B9B9B" d="M672.178,901.563v-57.5h16.1l1.381,6.9h0.46c2.3-2.223,4.925-4.158,7.877-5.808
		c2.95-1.648,6.383-2.473,10.293-2.473c6.285,0,10.848,2.127,13.685,6.383c2.836,4.255,4.255,9.947,4.255,17.077v35.42h-19.779
		v-32.89c0-3.681-0.46-6.133-1.381-7.36c-0.92-1.226-2.377-1.84-4.369-1.84c-1.841,0-3.375,0.385-4.601,1.149
		c-1.228,0.768-2.607,1.841-4.14,3.221v37.72H672.178z"/>
	<path fill="#9B9B9B" d="M754.056,902.942c-2.685,0-5.1-0.479-7.245-1.438c-2.147-0.958-3.968-2.242-5.463-3.853
		c-1.494-1.609-2.627-3.487-3.393-5.635c-0.767-2.146-1.149-4.408-1.149-6.785c0-5.979,2.452-10.675,7.36-14.088
		c4.905-3.41,12.88-5.692,23.92-6.842c-0.46-3.985-3.145-5.98-8.051-5.98c-2.069,0-4.255,0.402-6.555,1.208
		c-2.3,0.805-4.945,2.013-7.935,3.622l-6.9-12.88c4.063-2.453,8.165-4.33,12.305-5.635c4.141-1.303,8.471-1.955,12.995-1.955
		c7.436,0,13.283,2.127,17.538,6.383c4.255,4.255,6.382,11.097,6.382,20.527v31.97h-16.1l-1.38-5.52h-0.46
		c-2.3,2.069-4.735,3.737-7.303,5.002C760.054,902.31,757.198,902.942,754.056,902.942z M760.955,887.763
		c1.61,0,2.933-0.363,3.968-1.093c1.035-0.728,2.088-1.667,3.163-2.817v-7.82c-4.755,0.69-8.013,1.726-9.775,3.105
		c-1.765,1.38-2.645,2.875-2.645,4.484C755.666,886.383,757.429,887.763,760.955,887.763z"/>
	<path fill="#9B9B9B" d="M818.455,902.942c-3.374,0-6.192-0.518-8.452-1.553c-2.263-1.034-4.083-2.51-5.463-4.427
		c-1.38-1.916-2.357-4.198-2.933-6.843c-0.575-2.646-0.862-5.577-0.862-8.798v-59.8h19.78v60.49c0,1.994,0.362,3.335,1.093,4.024
		c0.728,0.69,1.438,1.035,2.127,1.035c0.383,0,0.708,0,0.978,0c0.268,0,0.633-0.075,1.093-0.229l2.3,14.489
		c-1.074,0.461-2.397,0.843-3.968,1.15C822.575,902.788,820.678,902.942,818.455,902.942z"/>
	<path fill="#9B9B9B" d="M833.403,879.253v-13.801h28.98v13.801H833.403z"/>
	<path fill="#9B9B9B" d="M891.823,902.942c-3.68,0-7.572-0.729-11.673-2.185c-4.102-1.456-7.647-3.411-10.637-5.865l8.739-12.19
		c5.213,3.835,9.891,5.75,14.03,5.75c2.07,0,3.545-0.287,4.428-0.862c0.881-0.575,1.322-1.438,1.322-2.587
		c0-0.766-0.307-1.438-0.92-2.013c-0.614-0.575-1.438-1.11-2.473-1.61c-1.035-0.498-2.204-0.978-3.507-1.438
		c-1.305-0.46-2.685-0.995-4.141-1.61c-1.688-0.689-3.393-1.513-5.117-2.472c-1.726-0.958-3.277-2.128-4.657-3.508
		c-1.381-1.38-2.513-2.971-3.393-4.772c-0.883-1.801-1.323-3.891-1.323-6.268c0-2.836,0.556-5.405,1.668-7.705
		c1.11-2.3,2.663-4.255,4.657-5.865c1.993-1.609,4.389-2.854,7.188-3.737c2.798-0.88,5.883-1.322,9.258-1.322
		c4.753,0,8.835,0.787,12.247,2.357c3.411,1.572,6.383,3.317,8.913,5.232l-8.74,11.73c-2.07-1.533-4.103-2.721-6.095-3.565
		c-1.995-0.843-3.872-1.265-5.636-1.265c-3.374,0-5.06,1.074-5.06,3.22c0,0.768,0.287,1.42,0.862,1.955
		c0.575,0.537,1.36,1.035,2.357,1.495c0.996,0.46,2.146,0.901,3.45,1.322c1.303,0.422,2.683,0.902,4.14,1.438
		c1.686,0.614,3.411,1.38,5.176,2.3c1.763,0.92,3.353,2.052,4.772,3.393c1.417,1.343,2.567,2.952,3.45,4.83
		c0.88,1.88,1.322,4.122,1.322,6.728c0,2.685-0.537,5.194-1.61,7.532c-1.074,2.34-2.645,4.37-4.715,6.096
		c-2.07,1.725-4.64,3.066-7.705,4.024C899.336,902.463,895.809,902.942,891.823,902.942z"/>
	<path fill="#9B9B9B" d="M947.484,902.942c-3.758,0-6.958-0.557-9.603-1.667c-2.646-1.111-4.83-2.703-6.556-4.772
		c-1.725-2.07-2.989-4.543-3.795-7.418c-0.805-2.875-1.207-6.075-1.207-9.603v-20.01h-7.59v-14.72l8.739-0.69l2.301-14.95h16.33
		v14.95h13.109v15.41h-13.109v19.665c0,3.22,0.689,5.425,2.069,6.612c1.38,1.189,2.99,1.782,4.83,1.782
		c0.92,0,1.82-0.095,2.702-0.287c0.881-0.19,1.668-0.402,2.358-0.633l2.989,14.26c-1.534,0.46-3.374,0.921-5.52,1.381
		C953.387,902.713,950.704,902.942,947.484,902.942z"/>
	<path fill="#9B9B9B" d="M978.303,923.183c-1.994,0-3.622-0.097-4.887-0.288c-1.266-0.191-2.55-0.479-3.853-0.862l3.449-14.95
		c0.536,0.153,1.131,0.306,1.783,0.461c0.65,0.152,1.282,0.229,1.897,0.229c2.683,0,4.695-0.518,6.037-1.553
		c1.341-1.035,2.318-2.435,2.933-4.197l0.69-2.53l-21.851-55.43h19.78l6.899,22.08c0.843,2.685,1.571,5.348,2.186,7.992
		c0.612,2.646,1.265,5.425,1.955,8.338h0.46c0.612-2.76,1.207-5.48,1.782-8.165c0.575-2.683,1.208-5.405,1.897-8.165l5.75-22.08
		h18.86l-19.32,56.58c-1.534,3.91-3.087,7.282-4.657,10.12c-1.572,2.835-3.393,5.175-5.463,7.015c-2.069,1.84-4.428,3.2-7.072,4.083
		C984.916,922.74,981.828,923.183,978.303,923.183z"/>
	<path fill="#9B9B9B" d="M1049.832,902.942c-3.374,0-6.192-0.518-8.452-1.553c-2.263-1.034-4.083-2.51-5.463-4.427
		c-1.38-1.916-2.357-4.198-2.933-6.843c-0.575-2.646-0.862-5.577-0.862-8.798v-59.8h19.78v60.49c0,1.994,0.362,3.335,1.093,4.024
		c0.728,0.69,1.438,1.035,2.127,1.035c0.383,0,0.708,0,0.978,0c0.268,0,0.633-0.075,1.093-0.229l2.3,14.489
		c-1.074,0.461-2.397,0.843-3.968,1.15C1053.952,902.788,1052.055,902.942,1049.832,902.942z"/>
	<path fill="#9B9B9B" d="M1093.07,902.942c-4.217,0-8.127-0.672-11.729-2.013c-3.604-1.34-6.728-3.295-9.373-5.864
		c-2.645-2.568-4.734-5.73-6.267-9.488c-1.535-3.755-2.301-8.01-2.301-12.765c0-4.676,0.785-8.873,2.357-12.593
		c1.571-3.718,3.641-6.88,6.21-9.487c2.568-2.605,5.501-4.6,8.798-5.979c3.296-1.381,6.708-2.07,10.235-2.07
		c4.215,0,7.896,0.729,11.04,2.185c3.143,1.458,5.75,3.45,7.819,5.98c2.07,2.53,3.623,5.482,4.658,8.854
		c1.034,3.375,1.552,6.978,1.552,10.811c0,1.765-0.097,3.412-0.287,4.944c-0.192,1.535-0.365,2.646-0.518,3.336h-32.775
		c0.921,3.449,2.568,5.847,4.945,7.188c2.376,1.342,5.175,2.012,8.396,2.012c1.992,0,3.928-0.287,5.808-0.862
		c1.877-0.575,3.852-1.438,5.922-2.587l6.44,11.729c-3.145,2.225-6.612,3.892-10.408,5.003
		C1099.798,902.386,1096.291,902.942,1093.07,902.942z M1082.261,865.912h17.02c0-2.223-0.557-4.157-1.667-5.807
		c-1.112-1.648-3.162-2.473-6.152-2.473c-2.225,0-4.16,0.652-5.808,1.955C1084.004,860.892,1082.873,863,1082.261,865.912z"/>
	<path fill="#9B9B9B" d="M1144.59,902.942c-3.68,0-7.572-0.729-11.673-2.185c-4.102-1.456-7.647-3.411-10.637-5.865l8.739-12.19
		c5.213,3.835,9.891,5.75,14.03,5.75c2.07,0,3.545-0.287,4.428-0.862c0.881-0.575,1.322-1.438,1.322-2.587
		c0-0.766-0.307-1.438-0.92-2.013c-0.614-0.575-1.438-1.11-2.473-1.61c-1.035-0.498-2.204-0.978-3.507-1.438
		c-1.305-0.46-2.685-0.995-4.141-1.61c-1.688-0.689-3.393-1.513-5.117-2.472c-1.726-0.958-3.277-2.128-4.657-3.508
		c-1.381-1.38-2.513-2.971-3.393-4.772c-0.883-1.801-1.323-3.891-1.323-6.268c0-2.836,0.556-5.405,1.668-7.705
		c1.11-2.3,2.663-4.255,4.657-5.865c1.993-1.609,4.389-2.854,7.188-3.737c2.798-0.88,5.883-1.322,9.258-1.322
		c4.753,0,8.835,0.787,12.247,2.357c3.411,1.572,6.383,3.317,8.913,5.232l-8.74,11.73c-2.07-1.533-4.103-2.721-6.095-3.565
		c-1.995-0.843-3.872-1.265-5.636-1.265c-3.374,0-5.06,1.074-5.06,3.22c0,0.768,0.287,1.42,0.862,1.955
		c0.575,0.537,1.36,1.035,2.357,1.495c0.996,0.46,2.146,0.901,3.45,1.322c1.303,0.422,2.683,0.902,4.14,1.438
		c1.686,0.614,3.411,1.38,5.176,2.3c1.763,0.92,3.353,2.052,4.772,3.393c1.417,1.343,2.567,2.952,3.45,4.83
		c0.88,1.88,1.322,4.122,1.322,6.728c0,2.685-0.537,5.194-1.61,7.532c-1.074,2.34-2.645,4.37-4.715,6.096
		c-2.07,1.725-4.64,3.066-7.705,4.024C1152.103,902.463,1148.575,902.942,1144.59,902.942z"/>
</g>
</svg>
